<?xml version="1.0" standalone="no"?>
<!DOCTYPE svg PUBLIC "-//W3C//DTD SVG 20010904//EN"
 "http://www.w3.org/TR/2001/REC-SVG-20010904/DTD/svg10.dtd">
<svg version="1.0" xmlns="http://www.w3.org/2000/svg"
 width="687.000000pt" height="687.000000pt" viewBox="0 0 687.000000 687.000000"
 preserveAspectRatio="xMidYMid meet">
<metadata>
Created by potrace 1.11, written by Peter Selinger 2001-2013
</metadata>
<g transform="translate(0.000000,687.000000) scale(0.100000,-0.100000)"
fill="#000000" stroke="none">
<path d="M3209 6866 c-2 -2 -42 -6 -89 -10 -47 -4 -96 -8 -110 -11 -14 -2 -60
-9 -103 -15 -110 -16 -122 -18 -217 -41 -47 -11 -94 -22 -106 -25 -37 -7 -227
-65 -299 -90 -410 -147 -791 -371 -1120 -658 -453 -396 -814 -943 -996 -1511
-24 -73 -68 -231 -75 -265 -3 -14 -7 -33 -10 -42 -6 -19 -9 -36 -29 -143 -16
-86 -19 -110 -31 -195 -4 -30 -9 -66 -11 -80 -2 -14 -6 -115 -9 -226 l-7 -200
89 -18 c49 -10 114 -25 144 -33 30 -7 71 -16 90 -19 19 -3 49 -9 65 -14 17 -5
46 -12 65 -15 19 -3 73 -15 120 -25 47 -10 101 -22 120 -25 19 -3 49 -10 65
-15 17 -5 44 -12 62 -15 17 -3 85 -17 150 -31 65 -14 126 -27 136 -29 10 -2
26 -6 35 -9 9 -3 28 -7 42 -10 14 -3 48 -9 75 -15 28 -6 61 -13 75 -16 14 -2
36 -7 50 -10 14 -3 34 -7 45 -10 80 -17 259 -56 300 -65 86 -20 219 -49 278
-60 37 -7 38 -7 33 19 -3 14 -7 42 -10 61 -3 19 -12 74 -21 123 -8 48 -18 104
-20 125 -3 20 -9 51 -12 67 -4 17 -7 37 -8 45 -1 8 -10 60 -19 115 -10 55 -20
114 -22 130 -3 17 -14 82 -25 145 -11 63 -22 129 -24 145 -5 30 -32 192 -39
230 -2 11 -11 63 -20 115 -9 52 -18 106 -21 120 -2 14 -18 108 -35 210 -17
102 -32 194 -34 205 -2 11 -7 40 -11 65 -4 25 -9 54 -12 65 -7 35 -23 128 -29
175 -3 25 -8 48 -11 52 -4 8 102 115 184 184 61 51 240 184 248 184 4 0 25 13
48 28 185 126 568 279 797 317 19 3 42 8 50 10 8 2 33 7 55 10 23 3 50 7 62 9
124 24 532 25 653 1 13 -2 42 -7 65 -11 413 -60 848 -260 1195 -548 287 -238
546 -595 693 -956 33 -81 94 -263 103 -305 2 -11 6 -29 8 -40 2 -11 9 -38 15
-60 16 -64 35 -185 47 -313 8 -89 8 -362 0 -427 -3 -25 -9 -66 -12 -92 -3 -27
-7 -55 -9 -63 -3 -8 -7 -35 -10 -60 -3 -25 -8 -53 -11 -62 -3 -9 -6 -25 -8
-35 -21 -106 -93 -330 -141 -440 -38 -84 -115 -234 -136 -265 -11 -14 -19 -29
-19 -32 0 -13 -123 -189 -187 -269 -80 -99 -66 -83 -188 -206 -85 -86 -104
-101 -125 -96 -14 2 -38 7 -55 10 -44 9 -70 14 -139 30 -34 8 -79 17 -101 21
-22 3 -43 8 -46 10 -3 2 -41 11 -85 20 -43 9 -88 18 -99 21 -11 2 -31 6 -45 9
-14 3 -45 10 -70 15 -25 6 -54 13 -65 15 -39 8 -61 12 -205 44 -179 40 -156
35 -275 60 -55 12 -111 24 -125 26 -14 3 -33 7 -42 10 -9 3 -25 6 -35 8 -54
11 -189 39 -263 56 -47 10 -96 21 -110 24 -14 3 -68 14 -120 26 -112 26 -126
29 -163 35 -15 3 -55 12 -89 20 l-61 14 7 -42 c3 -23 8 -53 11 -67 10 -53 56
-327 61 -360 2 -19 9 -57 14 -85 6 -27 12 -63 15 -80 2 -16 9 -57 15 -90 6
-33 13 -76 16 -95 2 -19 7 -46 10 -60 2 -14 6 -36 9 -50 12 -69 37 -219 41
-245 7 -44 27 -162 45 -265 6 -30 12 -66 14 -80 2 -14 6 -38 9 -55 3 -16 8
-46 11 -65 3 -19 10 -57 15 -85 5 -27 12 -68 15 -90 4 -22 8 -47 10 -55 2 -8
9 -55 16 -104 l13 -88 321 5 c176 3 336 8 355 11 19 3 60 11 90 16 30 5 72 12
94 16 89 14 252 54 401 99 250 76 543 208 760 343 28 17 63 39 80 48 16 9 79
53 140 97 241 175 383 304 606 553 53 59 187 237 256 340 274 409 479 948 539
1419 3 27 8 61 10 75 28 207 25 659 -6 855 -5 33 -12 76 -14 95 -5 37 -12 78
-21 120 -3 14 -10 48 -15 75 -32 160 -131 466 -201 621 -33 73 -137 285 -157
319 -10 17 -31 53 -47 80 -34 59 -182 281 -199 298 -6 7 -22 27 -36 46 -64 92
-247 291 -386 421 -293 275 -683 519 -1074 673 -105 41 -291 104 -332 112 -9
2 -43 10 -75 19 -88 22 -146 36 -168 40 -11 2 -40 7 -65 11 -47 8 -68 11 -110
19 -14 3 -50 8 -80 12 -30 3 -73 8 -95 11 -47 6 -551 14 -556 9z"/>
<path d="M3438 5246 c-1 -2 -55 -6 -118 -10 -63 -3 -128 -9 -145 -11 -16 -3
-39 -7 -50 -9 -167 -28 -370 -96 -520 -174 -85 -44 -235 -142 -235 -153 0 -5
14 -88 31 -186 17 -98 32 -190 34 -205 2 -14 20 -122 40 -240 20 -117 38 -226
41 -243 3 -16 7 -37 9 -45 2 -8 7 -35 10 -60 3 -25 8 -52 10 -60 2 -8 6 -33
10 -55 3 -22 8 -53 11 -70 3 -16 7 -41 9 -55 3 -14 18 -106 35 -205 17 -99 32
-193 35 -208 2 -16 6 -40 9 -55 6 -30 12 -67 21 -127 4 -22 8 -47 10 -55 2 -8
7 -31 10 -50 9 -59 26 -164 30 -186 3 -14 15 -24 32 -27 16 -4 102 -23 193
-42 91 -20 176 -39 190 -41 14 -3 33 -7 42 -10 10 -3 30 -7 45 -10 16 -3 80
-16 143 -30 63 -15 121 -27 130 -29 8 -2 47 -10 85 -19 39 -8 82 -17 95 -19
14 -3 79 -17 145 -31 245 -54 300 -66 320 -70 11 -3 94 -21 185 -41 91 -20
176 -39 190 -41 14 -3 92 -20 173 -38 l148 -33 33 41 c75 92 183 283 237 417
23 59 67 192 73 224 2 11 9 40 15 65 29 130 36 205 36 400 -1 96 -4 193 -8
215 -4 22 -10 58 -13 80 -22 151 -101 382 -182 535 -219 411 -590 724 -1028
869 -66 22 -134 42 -149 45 -16 3 -51 10 -79 15 -87 17 -118 21 -216 27 -52 3
-100 7 -107 9 -6 2 -13 2 -15 1z"/>
<path d="M111 2558 c144 -537 413 -1031 779 -1432 53 -59 215 -220 256 -256
326 -282 663 -488 1034 -633 144 -56 319 -112 326 -104 4 3 -8 88 -25 189 -18
101 -34 197 -37 213 -10 63 -15 93 -34 200 -11 61 -22 128 -25 150 -4 22 -17
101 -30 175 -13 74 -26 151 -29 170 -10 67 -85 507 -121 715 -13 77 -27 158
-30 180 -14 99 0 88 -161 124 -80 18 -157 35 -172 37 -27 5 -252 54 -462 100
-132 30 -121 27 -225 48 -44 9 -107 23 -140 31 -33 8 -168 37 -300 65 -132 29
-310 67 -395 86 -85 19 -171 37 -190 40 -19 3 -38 8 -42 10 -4 2 7 -46 23
-108z"/>
</g>
</svg>
