<?xml version="1.0" standalone="no"?>
<!DOCTYPE svg PUBLIC "-//W3C//DTD SVG 20010904//EN"
 "http://www.w3.org/TR/2001/REC-SVG-20010904/DTD/svg10.dtd">
<svg version="1.0" xmlns="http://www.w3.org/2000/svg"
 width="124.000000pt" height="124.000000pt" viewBox="0 0 124.000000 124.000000"
 preserveAspectRatio="xMidYMid meet">
<metadata>
Created by potrace 1.11, written by Peter Selinger 2001-2013
</metadata>
<g transform="translate(0.000000,124.000000) scale(0.100000,-0.100000)"
fill="#000000" stroke="none">
<path d="M40 1012 l0 -229 343 -1 c188 0 351 1 362 3 20 4 20 12 20 230 l0
225 -362 0 -363 0 0 -228z"/>
<path d="M801 925 l0 -315 205 0 204 0 0 315 0 315 -205 0 -204 0 0 -315z"/>
<path d="M45 742 c-3 -3 -5 -171 -5 -374 l0 -368 204 0 203 0 -1 373 -1 372
-198 1 c-108 0 -199 -2 -202 -4z"/>
<path d="M938 572 l-138 -3 1 -107 0 -107 192 2 c106 1 198 2 205 2 10 1 12
26 10 107 l-3 106 -65 2 c-36 0 -127 0 -202 -2z"/>
<path d="M532 170 l0 -170 339 0 339 0 0 170 0 170 -339 0 -339 0 0 -170z"/>
</g>
</svg>
